<svg width="48" height="48" viewBox="0 0 48 48" fill="none" xmlns="http://www.w3.org/2000/svg">
<rect width="48" height="48" rx="8" fill="#E9EDEE"/>
<path d="M22.7058 11.3866C23.1019 11.1667 23.5475 11.0513 24.0005 11.0513C24.4535 11.0513 24.8991 11.1667 25.2952 11.3866L35.3152 16.952C35.5229 17.0675 35.696 17.2364 35.8165 17.4413C35.937 17.6462 36.0005 17.8796 36.0005 18.1173V29.0973C36.0004 29.5728 35.8731 30.0397 35.6319 30.4495C35.3906 30.8593 35.0442 31.1971 34.6285 31.428L25.2952 36.6146C24.8991 36.8346 24.4535 36.95 24.0005 36.95C23.5475 36.95 23.1019 36.8346 22.7058 36.6146L13.3725 31.428C12.957 31.1972 12.6107 30.8596 12.3694 30.45C12.1282 30.0405 12.0008 29.5739 12.0005 29.0986V18.1173C12.0005 17.8796 12.064 17.6462 12.1845 17.4413C12.305 17.2364 12.4781 17.0675 12.6858 16.952L22.7072 11.3866H22.7058Z" stroke="#4F6977" stroke-linecap="round" stroke-linejoin="round"/>
<path d="M18 13.9999L30 20.6666V25.3333" stroke="#4F6977" stroke-linecap="round" stroke-linejoin="round"/>
<path d="M15.9995 24.4374L19.9995 26.6668" stroke="#4F6977" stroke-linecap="round" stroke-linejoin="round"/>
<path d="M24.0005 23.9999V36.6666M12.0005 17.3333L24.0005 23.9999L12.0005 17.3333ZM24.0005 23.9999L36.0005 17.3333L24.0005 23.9999Z" stroke="#4F6977" stroke-linejoin="round"/>
<rect x="30.7686" y="30.11" width="6.85715" height="5.27473" fill="white"/>
<path fill-rule="evenodd" clip-rule="evenodd" d="M31.9996 28.0001C31.3934 28.0001 30.812 28.2409 30.3833 28.6696C29.9547 29.0982 29.7139 29.6796 29.7139 30.2858V34.8572C29.7139 35.4634 29.9547 36.0448 30.3833 36.4735C30.812 36.9021 31.3934 37.1429 31.9996 37.1429H36.571C37.1772 37.1429 37.7586 36.9021 38.1873 36.4735C38.6159 36.0448 38.8567 35.4634 38.8567 34.8572V30.2858C38.8567 29.6796 38.6159 29.0982 38.1873 28.6696C37.7586 28.2409 37.1772 28.0001 36.571 28.0001H31.9996ZM35.9904 31.9699C36.0315 31.9261 36.0635 31.8746 36.0847 31.8184C36.1059 31.7622 36.1158 31.7024 36.1138 31.6424C36.1118 31.5823 36.0981 31.5233 36.0733 31.4686C36.0485 31.4139 36.0132 31.3646 35.9694 31.3235C35.9256 31.2824 35.8741 31.2504 35.8179 31.2293C35.7617 31.2081 35.7019 31.1982 35.6419 31.2002C35.5818 31.2021 35.5228 31.2159 35.4681 31.2406C35.4134 31.2654 35.3641 31.3007 35.323 31.3445L33.9136 32.8485L33.2174 32.23C33.1262 32.1542 33.0091 32.1168 32.8908 32.1257C32.7725 32.1346 32.6623 32.1892 32.5835 32.2779C32.5047 32.3665 32.4634 32.4823 32.4684 32.6008C32.4734 32.7194 32.5243 32.8313 32.6103 32.913L33.6389 33.8273C33.7279 33.9063 33.8442 33.9476 33.9631 33.9422C34.0821 33.9368 34.1942 33.8852 34.2757 33.7985L35.99 31.9699H35.9904Z" fill="#4F6977"/>
</svg>
